<svg width="24" height="24" viewBox="0 0 24 24" fill="none" xmlns="http://www.w3.org/2000/svg">
<g clip-path="url(#clip0_175_5271)">
<path d="M23.641 14.9019C22.0377 21.3339 15.521 25.2439 9.09824 23.6405C2.66605 22.0371 -1.24389 15.5208 0.359518 9.09805C1.96283 2.66605 8.47002 -1.24389 14.9022 0.359519C21.325 1.95346 25.2444 8.46983 23.641 14.9019Z" fill="url(#paint0_linear_175_5271)"/>
<path d="M17.7136 10.5047C17.9479 8.91093 16.7386 8.04843 15.0698 7.47655L15.6136 5.31093L14.3011 4.9828L13.7761 7.09218C13.4292 7.0078 13.0729 6.92343 12.7167 6.84843L13.2417 4.72968L11.9292 4.40155L11.3948 6.5578C11.1042 6.49217 10.8229 6.42655 10.5511 6.36093V6.35155L8.73232 5.90155L8.38545 7.3078C8.38545 7.3078 9.36045 7.5328 9.3417 7.54217C9.87607 7.67342 9.96982 8.02968 9.95107 8.31093L9.33232 10.7766C9.36982 10.7859 9.4167 10.7953 9.47295 10.8234C9.42607 10.8141 9.3792 10.8047 9.33232 10.7859L8.46982 14.2359C8.4042 14.3953 8.23545 14.639 7.86982 14.5453C7.8792 14.564 6.91357 14.3109 6.91357 14.3109L6.25732 15.8203L7.97295 16.2516C8.2917 16.3359 8.60107 16.4109 8.91045 16.4953L8.3667 18.6797L9.6792 19.0078L10.2229 16.8422C10.5792 16.9359 10.9354 17.0297 11.2729 17.1141L10.7386 19.2703L12.0511 19.5984L12.5948 17.4141C14.8448 17.8359 16.5323 17.6672 17.2354 15.6328C17.8073 14.0016 17.2073 13.0547 16.0261 12.4359C16.8979 12.239 17.5448 11.6672 17.7136 10.5047ZM14.7042 14.7234C14.3011 16.3547 11.5448 15.4734 10.6542 15.2484L11.3761 12.3516C12.2667 12.5766 15.1354 13.0172 14.7042 14.7234ZM15.1167 10.4766C14.7417 11.9672 12.4542 11.2078 11.7136 11.0203L12.3698 8.3953C13.1104 8.5828 15.5011 8.92968 15.1167 10.4766Z" fill="white"/>
</g>
<defs>
<linearGradient id="paint0_linear_175_5271" x1="1199.35" y1="-0.575999" x2="1199.35" y2="2399.76" gradientUnits="userSpaceOnUse">
<stop stop-color="#F9AA4B"/>
<stop offset="1" stop-color="#F7931A"/>
</linearGradient>
<clipPath id="clip0_175_5271">
<rect width="24" height="24" fill="white"/>
</clipPath>
</defs>
</svg>
