<svg width="24" height="24" viewBox="0 0 24 24" fill="none" xmlns="http://www.w3.org/2000/svg">
<path d="M12 24.0001C18.6274 24.0001 24 18.6275 24 12.0001C24 5.37264 18.6274 6.10352e-05 12 6.10352e-05C5.37258 6.10352e-05 0 5.37264 0 12.0001C0 18.6275 5.37258 24.0001 12 24.0001Z" fill="#627EEA"/>
<path d="M12.3735 3.00006V9.65256L17.9963 12.1651L12.3735 3.00006Z" fill="white" fill-opacity="0.602"/>
<path d="M12.3735 3.00006L6.75 12.1651L12.3735 9.65256V3.00006Z" fill="white"/>
<path d="M12.3735 16.476V20.9963L18 13.212L12.3735 16.476Z" fill="white" fill-opacity="0.602"/>
<path d="M12.3735 20.9963V16.4753L6.75 13.212L12.3735 20.9963Z" fill="white"/>
<path d="M12.3735 15.4298L17.9963 12.1651L12.3735 9.65405V15.4298Z" fill="white" fill-opacity="0.2"/>
<path d="M6.75 12.1651L12.3735 15.4298V9.65405L6.75 12.1651Z" fill="white" fill-opacity="0.602"/>
</svg>
