<svg width="40" height="40" viewBox="0 0 40 40" fill="none" xmlns="http://www.w3.org/2000/svg">
<path opacity="0.1" fill-rule="evenodd" clip-rule="evenodd" d="M0 20C0 8.95431 8.95431 0 20 0C31.0457 0 40 8.95431 40 20C40 31.0457 31.0457 40 20 40C8.95431 40 0 31.0457 0 20Z" fill="white"/>
<g clip-path="url(#clip0_209_22619)">
<path fill-rule="evenodd" clip-rule="evenodd" d="M27.561 12.6403C27.8012 12.5392 28.0642 12.5043 28.3225 12.5393C28.5808 12.5743 28.825 12.6779 29.0297 12.8393C29.2344 13.0007 29.3921 13.214 29.4863 13.4571C29.5806 13.7001 29.608 13.9639 29.5657 14.2212L27.3607 27.596C27.1468 28.8862 25.7313 29.626 24.5481 28.9834C23.5583 28.4457 22.0883 27.6174 20.7661 26.7531C20.105 26.3205 18.0799 24.935 18.3288 23.9492C18.5426 23.1063 21.9454 19.9388 23.8899 18.0556C24.6531 17.3157 24.305 16.8889 23.4038 17.5695C21.1647 19.2592 17.5724 21.8288 16.3843 22.5521C15.3363 23.1899 14.7899 23.2988 14.1365 23.1899C12.9446 22.9916 11.8392 22.6844 10.9369 22.31C9.71778 21.8045 9.77709 20.1284 10.936 19.6403L27.561 12.6403Z" fill="white"/>
</g>
<defs>
<clipPath id="clip0_209_22619">
<rect width="23.3333" height="23.3333" fill="white" transform="translate(8.33331 8.33337)"/>
</clipPath>
</defs>
</svg>
