<svg width="25" height="25" viewBox="0 0 25 25" fill="none" xmlns="http://www.w3.org/2000/svg">
<path d="M12.1523 24.307C18.7798 24.307 24.1523 18.9344 24.1523 12.307C24.1523 5.67959 18.7798 0.307007 12.1523 0.307007C5.52493 0.307007 0.152344 5.67959 0.152344 12.307C0.152344 18.9344 5.52493 24.307 12.1523 24.307Z" fill="#3E73C4"/>
<path d="M15.1693 13.9C15.1693 12.307 14.2093 11.761 12.2893 11.533C10.9183 11.3508 10.6445 10.987 10.6445 10.3495C10.6445 9.712 11.102 9.3025 12.0155 9.3025C12.8383 9.3025 13.2958 9.5755 13.5238 10.2588C13.5475 10.3248 13.5909 10.382 13.6482 10.4227C13.7055 10.4633 13.7738 10.4854 13.844 10.486H14.5753C14.6175 10.4871 14.6595 10.4797 14.6988 10.4641C14.738 10.4485 14.7737 10.4251 14.8037 10.3952C14.8336 10.3654 14.8572 10.3299 14.873 10.2907C14.8888 10.2515 14.8964 10.2095 14.8955 10.1673V10.1223C14.8061 9.62793 14.556 9.17696 14.184 8.83939C13.812 8.50183 13.3389 8.29657 12.8383 8.2555V7.1635C12.8383 6.98125 12.701 6.84475 12.473 6.799H11.7868C11.6045 6.799 11.4673 6.9355 11.4215 7.1635V8.2105C10.0498 8.392 9.182 9.3025 9.182 10.441C9.182 11.9425 10.0955 12.5343 12.0155 12.7623C13.2958 12.9895 13.7068 13.2633 13.7068 13.9915C13.7068 14.719 13.067 15.22 12.1985 15.22C11.0098 15.22 10.5988 14.7198 10.4615 14.0365C10.4165 13.855 10.2785 13.7635 10.1413 13.7635H9.36425C9.32208 13.7625 9.28014 13.77 9.24096 13.7857C9.20178 13.8013 9.16618 13.8247 9.13632 13.8545C9.10645 13.8843 9.08294 13.9199 9.0672 13.959C9.05147 13.9982 9.04383 14.0401 9.04475 14.0823V14.1273C9.227 15.2658 9.959 16.0848 11.4673 16.3128V17.4055C11.4673 17.587 11.6045 17.7243 11.8325 17.7693H12.5188C12.701 17.7693 12.8383 17.6328 12.884 17.4055V16.312C14.2558 16.0848 15.1693 15.1285 15.1693 13.8993V13.9Z" fill="white"/>
<path d="M9.8218 18.6798C6.2563 17.4048 4.4278 13.4448 5.7538 9.94001C6.4393 8.02751 7.94755 6.57176 9.8218 5.88851C10.0048 5.79776 10.0956 5.66126 10.0956 5.43326V4.79576C10.0956 4.61426 10.0048 4.47776 9.8218 4.43201C9.77605 4.43201 9.68455 4.43201 9.6388 4.47701C8.61012 4.79825 7.65515 5.3198 6.82887 6.01164C6.00259 6.70347 5.32132 7.55192 4.82429 8.50813C4.32726 9.46434 4.02428 10.5094 3.93281 11.5832C3.84134 12.657 3.96317 13.7383 4.2913 14.7648C5.1133 17.3148 7.07905 19.2723 9.6388 20.0913C9.8218 20.182 10.0048 20.0913 10.0498 19.909C10.0956 19.864 10.0956 19.8175 10.0956 19.7268V19.0893C10.0956 18.9528 9.95905 18.7713 9.8218 18.6798ZM14.6668 4.47776C14.4838 4.38626 14.3008 4.47776 14.2558 4.65926C14.2101 4.70501 14.2101 4.75076 14.2101 4.84151V5.47901C14.2101 5.66126 14.3466 5.84276 14.4838 5.93426C18.0493 7.20926 19.8778 11.1693 18.5518 14.674C17.8663 16.5865 16.3581 18.0423 14.4838 18.7255C14.3008 18.8163 14.2101 18.9528 14.2101 19.1808V19.8183C14.2101 19.9998 14.3008 20.1363 14.4838 20.182C14.5296 20.182 14.6211 20.182 14.6668 20.137C15.6955 19.8158 16.6505 19.2942 17.4767 18.6024C18.303 17.9105 18.9843 17.0621 19.4813 16.1059C19.9783 15.1497 20.2813 14.1046 20.3728 13.0308C20.4643 11.957 20.3424 10.8758 20.0143 9.84926C19.1923 7.25426 17.1808 5.29676 14.6668 4.47776Z" fill="white"/>
</svg>
