<svg width="40" height="40" viewBox="0 0 40 40" fill="none" xmlns="http://www.w3.org/2000/svg">
<path opacity="0.1" fill-rule="evenodd" clip-rule="evenodd" d="M0 20C0 8.95431 8.95431 0 20 0C31.0457 0 40 8.95431 40 20C40 31.0457 31.0457 40 20 40C8.95431 40 0 31.0457 0 20Z" fill="white"/>
<path d="M27.0681 13.5153C25.775 12.9125 24.375 12.475 22.9167 12.2222C22.9039 12.2218 22.8912 12.2242 22.8794 12.2292C22.8676 12.2343 22.8571 12.2418 22.8486 12.2514C22.6736 12.5722 22.4694 12.9903 22.3333 13.3111C20.7865 13.0778 19.2135 13.0778 17.6667 13.3111C17.5306 12.9805 17.3264 12.5722 17.1417 12.2514C17.1319 12.2319 17.1028 12.2222 17.0736 12.2222C15.6153 12.475 14.225 12.9125 12.9222 13.5153C12.9125 13.5153 12.9028 13.525 12.8931 13.5347C10.2486 17.4917 9.51945 21.3417 9.87917 25.1528C9.87917 25.1722 9.88889 25.1917 9.90834 25.2014C11.6583 26.4847 13.3403 27.2625 15.0028 27.7778C15.0319 27.7875 15.0611 27.7778 15.0708 27.7583C15.4597 27.2236 15.8097 26.6597 16.1111 26.0667C16.1306 26.0278 16.1111 25.9889 16.0722 25.9792C15.5181 25.7653 14.9931 25.5125 14.4778 25.2208C14.4389 25.2014 14.4389 25.143 14.4681 25.1139C14.575 25.0361 14.6819 24.9486 14.7889 24.8708C14.8083 24.8514 14.8375 24.8514 14.8569 24.8611C18.2014 26.3875 21.8083 26.3875 25.1139 24.8611C25.1333 24.8514 25.1625 24.8514 25.1819 24.8708C25.2889 24.9583 25.3958 25.0361 25.5028 25.1236C25.5417 25.1528 25.5417 25.2111 25.4931 25.2305C24.9875 25.5319 24.4528 25.775 23.8986 25.9889C23.8597 25.9986 23.85 26.0472 23.8597 26.0764C24.1708 26.6694 24.5208 27.2333 24.9 27.768C24.9292 27.7778 24.9583 27.7875 24.9875 27.7778C26.6597 27.2625 28.3417 26.4847 30.0917 25.2014C30.1111 25.1917 30.1208 25.1722 30.1208 25.1528C30.5486 20.7486 29.4111 16.9278 27.1069 13.5347C27.0972 13.525 27.0875 13.5153 27.0681 13.5153ZM16.6167 22.8292C15.6153 22.8292 14.7792 21.9055 14.7792 20.768C14.7792 19.6305 15.5958 18.7069 16.6167 18.7069C17.6472 18.7069 18.4639 19.6403 18.4542 20.768C18.4542 21.9055 17.6375 22.8292 16.6167 22.8292ZM23.3931 22.8292C22.3917 22.8292 21.5556 21.9055 21.5556 20.768C21.5556 19.6305 22.3722 18.7069 23.3931 18.7069C24.4236 18.7069 25.2403 19.6403 25.2306 20.768C25.2306 21.9055 24.4236 22.8292 23.3931 22.8292Z" fill="white"/>
</svg>
