<svg width="43" height="44" viewBox="0 0 43 44" fill="none" xmlns="http://www.w3.org/2000/svg">
<path d="M29.5 22C29.5 27.7785 28.4621 32.9379 26.8455 36.5965C26.0363 38.4279 25.1115 39.8166 24.1606 40.7268C23.2172 41.6299 22.3206 42 21.5 42C20.6794 42 19.7828 41.6299 18.8394 40.7268C17.8885 39.8166 16.9637 38.4279 16.1545 36.5965C14.5379 32.9379 13.5 27.7785 13.5 22C13.5 16.2215 14.5379 11.0621 16.1545 7.40345C16.9637 5.57211 17.8885 4.18344 18.8394 3.27315C19.7828 2.37009 20.6794 2 21.5 2C22.3206 2 23.2172 2.37009 24.1606 3.27315C25.1115 4.18344 26.0363 5.57211 26.8455 7.40345C28.4621 11.0621 29.5 16.2215 29.5 22Z" stroke="white" stroke-width="3"/>
<path d="M21.5 30C15.7215 30 10.5621 28.9621 6.90345 27.3455C5.07211 26.5363 3.68344 25.6115 2.77315 24.6606C1.87009 23.7172 1.5 22.8206 1.5 22C1.5 21.1794 1.87009 20.2828 2.77315 19.3394C3.68344 18.3885 5.07211 17.4637 6.90345 16.6545C10.5621 15.0379 15.7215 14 21.5 14C27.2785 14 32.4379 15.0379 36.0965 16.6545C37.9279 17.4637 39.3166 18.3885 40.2268 19.3394C41.1299 20.2828 41.5 21.1794 41.5 22C41.5 22.8206 41.1299 23.7172 40.2268 24.6606C39.3166 25.6115 37.9279 26.5363 36.0965 27.3455C32.4379 28.9621 27.2785 30 21.5 30Z" stroke="#9BA4ED" stroke-width="3"/>
</svg>
