<svg width="64" height="64" viewBox="0 0 64 64" fill="none" xmlns="http://www.w3.org/2000/svg">
<circle cx="32" cy="32" r="32" fill="white"/>
<path d="M40.5 31.5C40.5 37.2785 39.4621 42.4379 37.8455 46.0965C37.0363 47.9279 36.1115 49.3166 35.1606 50.2268C34.2172 51.1299 33.3206 51.5 32.5 51.5C31.6794 51.5 30.7828 51.1299 29.8394 50.2268C28.8885 49.3166 27.9637 47.9279 27.1545 46.0965C25.5379 42.4379 24.5 37.2785 24.5 31.5C24.5 25.7215 25.5379 20.5621 27.1545 16.9035C27.9637 15.0721 28.8885 13.6834 29.8394 12.7732C30.7828 11.8701 31.6794 11.5 32.5 11.5C33.3206 11.5 34.2172 11.8701 35.1606 12.7732C36.1115 13.6834 37.0363 15.0721 37.8455 16.9035C39.4621 20.5621 40.5 25.7215 40.5 31.5Z" stroke="#333652" stroke-width="3"/>
<path d="M32.5 39.5C26.7215 39.5 21.5621 38.4621 17.9034 36.8455C16.0721 36.0363 14.6834 35.1115 13.7732 34.1606C12.8701 33.2172 12.5 32.3206 12.5 31.5C12.5 30.6794 12.8701 29.7828 13.7732 28.8394C14.6834 27.8885 16.0721 26.9637 17.9034 26.1545C21.5621 24.5379 26.7215 23.5 32.5 23.5C38.2785 23.5 43.4379 24.5379 47.0965 26.1545C48.9279 26.9637 50.3166 27.8885 51.2268 28.8394C52.1299 29.7828 52.5 30.6794 52.5 31.5C52.5 32.3206 52.1299 33.2172 51.2268 34.1606C50.3166 35.1115 48.9279 36.0363 47.0965 36.8455C43.4379 38.4621 38.2785 39.5 32.5 39.5Z" stroke="#9BA4ED" stroke-width="3"/>
</svg>
