<svg width="70" height="60" viewBox="0 0 70 60" fill="none" xmlns="http://www.w3.org/2000/svg">
<g clip-path="url(#clip0_350_28965)">
<path d="M60.047 0L33.7974 19.6643L38.6787 8.07557L60.047 0Z" fill="#E17726"/>
<path d="M1.7693 0.0232258L23.0805 8.07701L27.7154 19.8177L1.7693 0.0232258ZM49.4833 41.8205L61.0853 42.044L57.0305 55.9897L42.8735 52.0435L49.4833 41.8205ZM12.2713 41.8205L18.8565 52.0435L4.72339 55.9899L0.693237 42.044L12.2713 41.8205Z" fill="#E27625"/>
<path d="M27.0853 16.8271L27.5594 32.3311L13.3718 31.6776L17.4075 25.5136L17.4586 25.4543L27.0853 16.8271ZM34.5226 16.6541L44.2963 25.4548L44.347 25.5138L48.3826 31.6778L34.1981 32.3311L34.5226 16.6541ZM19.2721 41.8655L27.0189 47.9765L18.0199 52.3752L19.2721 41.8655ZM42.4843 41.8645L43.7104 52.3754L34.7365 47.976L42.4843 41.8645Z" fill="#E27625"/>
<path d="M34.9346 47.4005L44.0409 51.8647L35.5703 55.9403L35.6582 53.2466L34.9346 47.4005ZM26.8177 47.4024L26.1225 53.2026L26.1796 55.9372L17.6892 51.8647L26.8177 47.4024Z" fill="#D5BFB2"/>
<path d="M24.1881 34.3546L26.5677 39.4178L18.4661 37.0149L24.1881 34.3546ZM37.5666 34.3551L43.3156 37.0149L35.1874 39.4171L37.5666 34.3551Z" fill="#233447"/>
<path d="M19.8913 41.8137L18.5817 52.7105L11.5626 42.052L19.8913 41.8137ZM41.8641 41.814L50.193 42.052L43.1476 52.711L41.8641 41.814ZM48.5877 31.0614L42.5263 37.3156L37.8529 35.1535L35.6154 39.9157L34.1487 31.7265L48.5877 31.0614ZM13.1642 31.0614L27.606 31.7265L26.139 39.9157L23.9011 35.1542L19.2525 37.3159L13.1642 31.0614Z" fill="#CC6228"/>
<path d="M12.7557 29.7779L19.6136 36.8233L19.8511 43.7787L12.7557 29.7779ZM49.0061 29.7653L41.8978 43.7911L42.1654 36.8233L49.0061 29.7653ZM27.2707 30.2071L27.5467 31.966L28.2287 36.3477L27.7902 49.8053L25.7172 38.9944L25.7165 38.8827L27.2707 30.2071ZM34.4806 30.1827L36.0388 38.8827L36.0381 38.9944L33.9598 49.8324L33.8776 47.1215L33.5534 36.2678L34.4806 30.1827Z" fill="#E27525"/>
<path d="M42.7751 36.5434L42.5431 42.5865L35.3087 48.293L33.8462 47.2469L35.4855 38.6981L42.7751 36.5434ZM19.005 36.5434L26.2693 38.6981L27.9086 47.2469L26.4461 48.293L19.2115 42.586L19.005 36.5434Z" fill="#F5841F"/>
<path d="M16.3049 50.5302L25.5605 54.9702L25.5213 53.0741L26.2958 52.3858H35.4563L36.2588 53.0717L36.1995 54.9663L45.3966 50.5413L40.9212 54.2855L35.5099 58.0483H26.2215L20.8137 54.27L16.3049 50.5302Z" fill="#C0AC9D"/>
<path d="M34.2717 46.8094L35.5803 47.7455L36.3471 53.94L35.2374 52.9914H26.5209L25.4321 53.9591L26.1739 47.746L27.4829 46.8094H34.2717Z" fill="#161616"/>
<path d="M58.314 0.544354L61.465 10.1146L59.4972 19.7913L60.8984 20.8856L59.0023 22.3502L60.4274 23.4646L58.5403 25.2044L59.6988 26.0538L56.6243 29.6891L44.0141 25.9718L43.9049 25.9125L34.8178 18.1517L58.314 0.544354ZM3.44091 0.544354L26.9374 18.1517L17.85 25.9125L17.7408 25.9718L5.13064 29.6891L2.05611 26.0538L3.21366 25.2051L1.32774 23.4646L2.75006 22.3515L0.825438 20.8827L2.27954 19.7877L0.289917 10.1151L3.44091 0.544354Z" fill="#763E1A"/>
<path d="M43.3974 25.1589L56.7586 29.0973L61.0994 42.6423H49.6473L41.7566 42.743L47.4951 31.4185L43.3974 25.1589ZM18.3576 25.1589L14.2591 31.4185L19.9984 42.743L12.1113 42.6423H0.679688L4.99612 29.0976L18.3576 25.1589ZM39.333 8.01097L35.5959 18.2301L34.8027 32.0349L34.4993 36.3619L34.4751 47.4155H27.2796L27.2562 36.3827L26.9518 32.0313L26.1584 18.2301L22.4217 8.01097H39.333Z" fill="#F5841F"/>
</g>
<circle cx="55.7101" cy="46" r="14" fill="#2ACB87"/>
<path d="M61.7391 41.6153L53.8654 49.4514L50.2864 45.8895" stroke="white" stroke-width="2" stroke-linecap="round" stroke-linejoin="round"/>
<defs>
<clipPath id="clip0_350_28965">
<rect width="61.1751" height="58.0645" fill="white" transform="translate(0.289917)"/>
</clipPath>
</defs>
</svg>
