<svg width="60" height="60" viewBox="0 0 60 60" fill="none" xmlns="http://www.w3.org/2000/svg">
<rect x="21" y="22" width="17" height="28" fill="#262734"/>
<path d="M3.79443 55C3.27643 55 2.80553 54.8722 2.38172 54.6166C1.9579 54.3611 1.62827 54.0259 1.39282 53.6111C1.15737 53.1944 1.0274 52.7426 1.00291 52.2555C0.978425 51.7685 1.10839 51.2944 1.39282 50.8333L27.528 6.38889C27.8105 5.92593 28.1759 5.5787 28.6242 5.34722C29.0725 5.11574 29.5312 5 30.0002 5C30.4711 5 30.9307 5.11574 31.379 5.34722C31.8273 5.5787 32.1918 5.92593 32.4724 6.38889L58.6076 50.8333C58.8901 51.2963 59.0201 51.7713 58.9975 52.2583C58.9749 52.7454 58.8449 53.1963 58.6076 53.6111C58.3721 54.0278 58.0425 54.3639 57.6187 54.6194C57.1949 54.875 56.724 55.0018 56.206 55H3.79443ZM30.0002 46.6666C30.8007 46.6666 31.4722 46.4 32.0147 45.8666C32.5572 45.3333 32.8275 44.6741 32.8256 43.8889C32.8256 43.1018 32.5544 42.4417 32.0119 41.9083C31.4694 41.375 30.7989 41.1092 30.0002 41.1111C29.1997 41.1111 28.5282 41.3778 27.9857 41.9111C27.4432 42.4444 27.1729 43.1037 27.1748 43.8889C27.1748 44.6759 27.446 45.3361 27.9885 45.8694C28.531 46.4028 29.2015 46.6685 30.0002 46.6666ZM30.0002 38.3333C30.8007 38.3333 31.4722 38.0667 32.0147 37.5333C32.5572 37 32.8275 36.3407 32.8256 35.5555V27.2222C32.8256 26.4352 32.5544 25.775 32.0119 25.2417C31.4694 24.7083 30.7989 24.4426 30.0002 24.4444C29.1997 24.4444 28.5282 24.7111 27.9857 25.2444C27.4432 25.7778 27.1729 26.437 27.1748 27.2222V35.5555C27.1748 36.3426 27.446 37.0028 27.9885 37.5361C28.531 38.0694 29.2015 38.3352 30.0002 38.3333Z" fill="#FAD02C"/>
</svg>
